<svg width="21" height="21" viewBox="0 0 21 21" fill="none" xmlns="http://www.w3.org/2000/svg">
<path d="M2.16666 10.67C2.16666 8.76293 2.16666 7.80942 2.59932 7.01897C3.03199 6.22853 3.82244 5.73795 5.40335 4.75679L7.07002 3.72241C8.74115 2.68526 9.57671 2.16669 10.5 2.16669C11.4233 2.16669 12.2588 2.68526 13.93 3.72241L15.5966 4.75679C17.1775 5.73795 17.968 6.22853 18.4007 7.01897C18.8333 7.80942 18.8333 8.76293 18.8333 10.67V11.9375C18.8333 15.1882 18.8333 16.8136 17.857 17.8235C16.8807 18.8334 15.3094 18.8334 12.1667 18.8334H8.83332C5.69063 18.8334 4.11928 18.8334 3.14297 17.8235C2.16666 16.8136 2.16666 15.1882 2.16666 11.9375V10.67Z" stroke="white" stroke-width="1.5"/>
<path d="M10.5 13L10.5 15.5" stroke="white" stroke-width="1.5" stroke-linecap="round"/>
</svg>
