<svg width="105" height="105" viewBox="0 0 105 105" fill="none" xmlns="http://www.w3.org/2000/svg">
<mask id="mask0_35_1621" style="mask-type:luminance" maskUnits="userSpaceOnUse" x="7" y="2" width="91" height="101">
<path d="M7.92171 2.69199H97.0667V102.285H7.92171V2.69199Z" fill="white"/>
</mask>
<g mask="url(#mask0_35_1621)">
<path d="M97.0534 2.69174H7.93518L15.7984 91.8009L52.4943 102.284L89.1901 91.8009L97.0534 2.69174Z" fill="#E63E21"/>
</g>
<path d="M52.4954 10.5562V94.1614L81.8519 85.7745L88.4048 10.5562H52.4954Z" fill="#E63E21"/>
<path d="M76.3476 23.6601H52.4954V34.1434H65.339L64.5526 44.6267H52.4954V55.1103H64.0284L63.242 66.9042L52.4954 70.5732V81.581L73.2022 74.7666L75.037 44.6267L76.3476 23.6601Z" fill="#161616"/>
<path d="M52.4953 23.6601V34.1434H29.1673L28.3809 23.6601H52.4953ZM40.4381 44.6267L40.9623 55.1103H52.4953V44.6267H40.4381ZM41.4864 60.3518H31.002L31.7884 74.7666L52.4953 81.581V70.5732L41.7487 66.9042L41.4864 60.3518Z" fill="#161616"/>
</svg>
