<svg width="105" height="105" viewBox="0 0 105 105" fill="none" xmlns="http://www.w3.org/2000/svg">
<mask id="mask0_35_1637" style="mask-type:luminance" maskUnits="userSpaceOnUse" x="2" y="2" width="101" height="101">
<path d="M2.5907 2.5925H102.393V102.395H2.5907V2.5925Z" fill="white"/>
</mask>
<g mask="url(#mask0_35_1637)">
<path d="M100.51 48.0504L56.9371 4.47728C56.8627 4.40291 56.7867 4.33017 56.7087 4.25963C56.6308 4.18908 56.5512 4.12017 56.4698 4.05345C56.3885 3.98673 56.3057 3.9222 56.2212 3.85931C56.1367 3.7967 56.0508 3.73627 55.9634 3.67775C55.8759 3.61923 55.787 3.56291 55.6968 3.50904C55.6068 3.4549 55.5152 3.40295 55.4225 3.35345C55.3298 3.30369 55.2357 3.25638 55.1406 3.21154C55.0457 3.16642 54.9494 3.12404 54.8524 3.08357C54.755 3.04338 54.6571 3.00564 54.5582 2.97009C54.4589 2.93455 54.3591 2.90173 54.2585 2.87111C54.1578 2.84048 54.0567 2.81259 53.9544 2.78689C53.8524 2.76146 53.7499 2.73849 53.6468 2.71771C53.5437 2.6972 53.4401 2.67943 53.3359 2.66384C53.232 2.64853 53.1275 2.63568 53.0228 2.62529C52.9181 2.6149 52.8134 2.60724 52.7084 2.60205C52.6034 2.59685 52.4981 2.59439 52.3928 2.59439C52.2878 2.59439 52.1825 2.59685 52.0775 2.60205C51.9725 2.60724 51.8678 2.6149 51.7631 2.62529C51.6583 2.63568 51.5539 2.64853 51.45 2.66384C51.3458 2.67943 51.2422 2.6972 51.1391 2.71771C51.036 2.73849 50.9335 2.76146 50.8315 2.78689C50.7292 2.81259 50.628 2.84048 50.5274 2.87111C50.4268 2.90173 50.327 2.93455 50.2277 2.97009C50.1287 3.00564 50.0306 3.04338 49.9335 3.08357C49.8364 3.12404 49.7402 3.16642 49.6453 3.21154C49.5501 3.25638 49.4561 3.30369 49.3634 3.35345C49.2707 3.40295 49.1791 3.4549 49.0891 3.50904C48.9989 3.56291 48.91 3.61923 48.8225 3.67775C48.735 3.73627 48.6492 3.7967 48.5647 3.85931C48.4802 3.9222 48.3973 3.98673 48.3161 4.05345C48.2346 4.12017 48.1551 4.18908 48.0771 4.25963C47.9992 4.33017 47.9232 4.40291 47.8488 4.47728L38.8043 13.5218L50.2816 24.999C52.9512 24.0633 56.0076 24.7029 58.1347 26.83C58.2605 26.9558 58.3816 27.0862 58.4984 27.2207C58.6152 27.355 58.727 27.4936 58.8339 27.6358C58.9411 27.7783 59.0428 27.924 59.1396 28.0736C59.2364 28.2229 59.328 28.3754 59.4141 28.5313C59.5003 28.6872 59.5809 28.8458 59.6559 29.0074C59.731 29.1687 59.8002 29.3327 59.8639 29.499C59.9274 29.6652 59.9851 29.8337 60.037 30.004C60.089 30.1744 60.1346 30.3461 60.1746 30.5197C60.2142 30.6934 60.2481 30.8681 60.2755 31.0439C60.3031 31.2197 60.3247 31.3967 60.3397 31.5738C60.355 31.7513 60.3641 31.929 60.3671 32.107C60.3698 32.2851 60.3662 32.4631 60.3567 32.6408C60.3471 32.8185 60.3312 32.996 60.3094 33.1726C60.2872 33.3493 60.2591 33.5248 60.2249 33.6995C60.1904 33.8743 60.1502 34.0476 60.1037 34.2196C60.0573 34.3916 60.005 34.5617 59.9468 34.7299L71.0093 45.7923C73.6851 44.8692 76.7728 45.4647 78.9091 47.6074C78.9977 47.696 79.0841 47.7865 79.1684 47.8795C79.2523 47.9722 79.3341 48.0668 79.4136 48.1636C79.4932 48.2604 79.5703 48.3591 79.6447 48.4597C79.7193 48.5603 79.7915 48.6626 79.8613 48.7668C79.9307 48.8707 79.9977 48.9765 80.0622 49.084C80.1265 49.1914 80.1883 49.3002 80.2473 49.4107C80.3064 49.5212 80.3627 49.6327 80.4163 49.7459C80.4699 49.8591 80.5205 49.9737 80.5686 50.0894C80.6165 50.205 80.6616 50.3218 80.7037 50.4397C80.7461 50.5575 80.7852 50.6765 80.8216 50.7962C80.8582 50.916 80.8916 51.0368 80.9219 51.1583C80.9523 51.2797 80.9799 51.4019 81.0042 51.5247C81.0288 51.6474 81.0502 51.7707 81.0685 51.8946C81.0868 52.0185 81.1024 52.1429 81.1147 52.2673C81.1267 52.392 81.136 52.517 81.1423 52.6419C81.1483 52.7669 81.1516 52.8921 81.1516 53.0174C81.1516 53.1426 81.1483 53.2678 81.1423 53.3928C81.1363 53.518 81.127 53.6427 81.1147 53.7674C81.1024 53.8921 81.0871 54.0162 81.0687 54.1401C81.0504 54.264 81.0291 54.3873 81.0045 54.51C80.9801 54.6331 80.9528 54.755 80.9222 54.8765C80.8918 54.9981 80.8585 55.1187 80.8221 55.2385C80.7857 55.3582 80.7466 55.4772 80.7043 55.595C80.6621 55.7132 80.617 55.8299 80.5692 55.9456C80.5213 56.0613 80.4705 56.1756 80.4169 56.2888C80.3635 56.402 80.3072 56.5138 80.2482 56.6243C80.1891 56.7347 80.1273 56.8436 80.063 56.951C79.9985 57.0585 79.9315 57.1643 79.8621 57.2685C79.7923 57.3724 79.7204 57.4749 79.6458 57.5753C79.5711 57.6759 79.494 57.7746 79.4147 57.8714C79.3352 57.9682 79.2534 58.0631 79.1692 58.1558C79.0852 58.2485 78.9988 58.3393 78.9102 58.4279C78.8216 58.5162 78.7311 58.6026 78.6382 58.6868C78.5455 58.7707 78.4506 58.8525 78.3538 58.9318C78.257 59.0114 78.1583 59.0885 78.0576 59.1629C77.957 59.2375 77.8548 59.3097 77.7506 59.3791C77.6464 59.4486 77.5409 59.5156 77.4334 59.5801C77.3259 59.6444 77.2168 59.7059 77.1064 59.765C76.9962 59.824 76.8843 59.8804 76.7709 59.9337C76.6577 59.9873 76.5434 60.0381 76.4277 60.086C76.312 60.1338 76.195 60.179 76.0771 60.2211C75.9593 60.2632 75.8403 60.3023 75.7206 60.3386C75.6008 60.375 75.48 60.4084 75.3586 60.4387C75.2371 60.4691 75.1149 60.4964 74.9921 60.521C74.8694 60.5454 74.7458 60.5667 74.6219 60.585C74.498 60.6033 74.3739 60.6186 74.2492 60.6309C74.1245 60.643 73.9998 60.6523 73.8746 60.6583C73.7496 60.6643 73.6244 60.6676 73.4992 60.6673C73.3739 60.6673 73.249 60.6643 73.1237 60.658C72.9988 60.6517 72.8738 60.6427 72.7494 60.6301C72.6247 60.6178 72.5006 60.6025 72.3767 60.5842C72.2528 60.5656 72.1295 60.5443 72.0065 60.5197C71.8837 60.4953 71.7618 60.4677 71.6401 60.4373C71.5187 60.4067 71.3981 60.3734 71.2783 60.337C71.1585 60.3006 71.0396 60.2613 70.9218 60.2189C70.8039 60.1768 70.6871 60.1316 70.5715 60.0835C70.4558 60.0357 70.3412 59.9848 70.228 59.9312C70.1148 59.8776 70.0033 59.8213 69.8928 59.7622C69.7823 59.7032 69.6735 59.6414 69.566 59.5768C69.4589 59.5126 69.353 59.4456 69.2489 59.3759C69.145 59.3061 69.0424 59.234 68.9421 59.1593C68.8414 59.0847 68.7427 59.0075 68.6462 58.9282C68.5494 58.8487 68.4545 58.7669 68.3618 58.6827C68.2691 58.5985 68.1784 58.5121 68.09 58.4235C65.8446 56.178 65.2892 52.8722 66.4245 50.1055L56.1075 39.7884V66.938C56.8613 67.311 57.537 67.7934 58.1347 68.3851C58.2233 68.4737 58.3094 68.5642 58.3937 68.6569C58.4776 68.7496 58.5594 68.8445 58.6387 68.9413C58.7182 69.0381 58.7951 69.1365 58.8697 69.2371C58.9444 69.3377 59.0163 69.44 59.0857 69.5442C59.1555 69.6481 59.2225 69.7539 59.2867 69.8611C59.351 69.9686 59.4128 70.0774 59.4718 70.1879C59.5306 70.2983 59.5869 70.4099 59.6405 70.5231C59.6939 70.6363 59.7447 70.7506 59.7926 70.8663C59.8404 70.9819 59.8855 71.0987 59.9276 71.2165C59.9698 71.3344 60.0091 71.4533 60.0455 71.5731C60.0819 71.6929 60.1152 71.8134 60.1456 71.9349C60.1759 72.0563 60.2033 72.1782 60.2279 72.301C60.2522 72.4238 60.2735 72.5471 60.2919 72.6709C60.3105 72.7948 60.3258 72.919 60.3381 73.0434C60.3501 73.1681 60.3594 73.2927 60.3657 73.418C60.3717 73.5429 60.3747 73.6679 60.3747 73.7931C60.3747 73.9184 60.3717 74.0433 60.3657 74.1683C60.3594 74.2935 60.3501 74.4182 60.3381 74.5429C60.3258 74.6673 60.3105 74.7915 60.2919 74.9153C60.2735 75.0392 60.2522 75.1625 60.2279 75.2853C60.2033 75.4081 60.1759 75.53 60.1456 75.6514C60.1152 75.7728 60.0819 75.8934 60.0455 76.0132C60.0091 76.1329 59.9698 76.2519 59.9276 76.3697C59.8855 76.4876 59.8404 76.6043 59.7926 76.72C59.7447 76.8357 59.6939 76.95 59.6405 77.0632C59.5869 77.1764 59.5306 77.2879 59.4718 77.3984C59.4128 77.5089 59.351 77.6177 59.2867 77.7252C59.2225 77.8323 59.1555 77.9382 59.0857 78.0421C59.0163 78.1463 58.9444 78.2485 58.8697 78.3491C58.7951 78.4498 58.7182 78.5482 58.6387 78.645C58.5594 78.7418 58.4776 78.8367 58.3937 78.9294C58.3094 79.0221 58.2233 79.1126 58.1347 79.2012C58.0461 79.2898 57.9556 79.3759 57.8629 79.4601C57.77 79.5441 57.6753 79.6258 57.5785 79.7051C57.4818 79.7847 57.383 79.8615 57.2827 79.9362C57.1821 80.0108 57.0798 80.0827 56.9756 80.1522C56.8717 80.2219 56.7659 80.2889 56.6587 80.3532C56.5512 80.4174 56.4424 80.4792 56.3319 80.5383C56.2215 80.5971 56.1099 80.6534 55.9967 80.707C55.8835 80.7606 55.7692 80.8112 55.6535 80.859C55.5379 80.9069 55.4211 80.952 55.3033 80.9941C55.1854 81.0365 55.0665 81.0756 54.9467 81.112C54.8269 81.1483 54.7064 81.1817 54.585 81.212C54.4635 81.2424 54.3416 81.27 54.2188 81.2943C54.096 81.3187 53.9727 81.34 53.8489 81.3586C53.725 81.3769 53.6008 81.3922 53.4764 81.4045C53.3517 81.4168 53.2271 81.4259 53.1018 81.4322C52.9769 81.4382 52.8519 81.4412 52.7267 81.4412C52.6014 81.4412 52.4765 81.4382 52.3512 81.4322C52.2263 81.4259 52.1016 81.4168 51.9769 81.4045C51.8525 81.3922 51.7284 81.3769 51.6045 81.3586C51.4806 81.34 51.3573 81.3187 51.2345 81.2943C51.1118 81.27 50.9898 81.2424 50.8684 81.212C50.747 81.1817 50.6264 81.1483 50.5066 81.112C50.3869 81.0756 50.2679 81.0362 50.1501 80.9941C50.0322 80.952 49.9155 80.9069 49.7998 80.859C49.6841 80.8112 49.5698 80.7606 49.4566 80.707C49.3434 80.6534 49.2319 80.5971 49.1214 80.5383C49.0109 80.4792 48.9021 80.4174 48.7946 80.3532C48.6875 80.2889 48.5816 80.2219 48.4775 80.1522C48.3735 80.0827 48.2713 80.0108 48.1707 79.9362C48.07 79.8615 47.9716 79.7847 47.8748 79.7051C47.778 79.6258 47.6831 79.5441 47.5904 79.4601C47.4977 79.3759 47.4072 79.2898 47.3186 79.2012C47.23 79.1129 47.1436 79.0221 47.0594 78.9294C46.9752 78.8367 46.8934 78.7421 46.8139 78.6453C46.7346 78.5488 46.6575 78.45 46.5828 78.3494C46.5082 78.2491 46.436 78.1468 46.3662 78.0426C46.2968 77.9387 46.2295 77.8329 46.1653 77.7257C46.1007 77.6182 46.0389 77.5094 45.9799 77.3989C45.9208 77.2888 45.8645 77.1769 45.8109 77.0637C45.7573 76.9505 45.7064 76.8362 45.6586 76.7206C45.6107 76.6049 45.5656 76.4881 45.5232 76.3703C45.4811 76.2524 45.4417 76.1335 45.4054 76.0137C45.369 75.894 45.3357 75.7734 45.305 75.652C45.2747 75.5305 45.2473 75.4083 45.2227 75.2856C45.1984 75.1628 45.1768 75.0395 45.1585 74.9156C45.1401 74.7917 45.1248 74.6676 45.1125 74.5429C45.1002 74.4185 45.0909 74.2935 45.0849 74.1686C45.0786 74.0436 45.0756 73.9184 45.0756 73.7931C45.0756 73.6679 45.0786 73.5429 45.0849 73.4177C45.0909 73.2927 45.1002 73.1678 45.1125 73.0434C45.1248 72.9187 45.1401 72.7945 45.1585 72.6707C45.1768 72.5468 45.1984 72.4235 45.2227 72.3007C45.2473 72.1779 45.2747 72.0557 45.305 71.9343C45.3357 71.8129 45.369 71.6923 45.4054 71.5725C45.4417 71.4528 45.4811 71.3338 45.5232 71.216C45.5656 71.0981 45.6107 70.9814 45.6586 70.8657C45.7064 70.75 45.7573 70.6357 45.8109 70.5225C45.8645 70.4093 45.9208 70.2978 45.9799 70.1873C46.0389 70.0768 46.1007 69.968 46.1653 69.8605C46.2295 69.7534 46.2968 69.6475 46.3662 69.5436C46.436 69.4395 46.5082 69.3372 46.5828 69.2368C46.6575 69.1362 46.7346 69.0375 46.8139 68.941C46.8934 68.8442 46.9752 68.7496 47.0594 68.6569C47.1436 68.5642 47.23 68.4734 47.3186 68.3851C48.0577 67.649 48.878 67.0909 49.823 66.7166V39.3146C48.9122 38.9402 48.0577 38.3882 47.3186 37.6461C47.1852 37.5129 47.0569 37.3748 46.9339 37.2324C46.8108 37.0896 46.6933 36.9425 46.5809 36.7913C46.4688 36.6398 46.3621 36.4845 46.2615 36.3254C46.1606 36.1662 46.066 36.0035 45.9771 35.8373C45.8885 35.671 45.806 35.5018 45.7299 35.3292C45.6537 35.157 45.5839 34.9822 45.5208 34.8045C45.4573 34.627 45.4007 34.4477 45.351 34.2658C45.3009 34.0843 45.2577 33.9008 45.2214 33.7159C45.185 33.5311 45.1555 33.3452 45.1328 33.1581C45.1101 32.9711 45.0942 32.7835 45.0855 32.5951C45.0767 32.407 45.0751 32.2186 45.0803 32.0305C45.0852 31.8421 45.0975 31.654 45.1164 31.4667C45.1355 31.2791 45.1615 31.0926 45.1943 30.9072C45.2271 30.7215 45.2668 30.5375 45.3132 30.3549C45.3597 30.1722 45.413 29.9917 45.4729 29.8129C45.5325 29.6343 45.599 29.4583 45.672 29.2843L34.3506 17.9692L4.47206 47.8163C4.39768 47.8907 4.32522 47.967 4.2544 48.0449C4.18358 48.1228 4.11495 48.2024 4.04823 48.2836C3.98124 48.3651 3.91671 48.4479 3.85381 48.5324C3.7912 48.6169 3.73049 48.7028 3.67198 48.7903C3.61346 48.8778 3.55714 48.9666 3.50299 49.0569C3.44885 49.1471 3.39717 49.2387 3.34741 49.3314C3.29792 49.4241 3.25034 49.5182 3.20549 49.6133C3.16038 49.7082 3.11772 49.8045 3.07753 49.9018C3.03706 49.9989 2.99932 50.097 2.96378 50.196C2.92823 50.2953 2.89542 50.3951 2.86479 50.4957C2.83417 50.5963 2.806 50.6978 2.78057 50.7998C2.75487 50.902 2.7319 51.0046 2.71139 51.1077C2.69089 51.211 2.67284 51.3147 2.65725 51.4188C2.64194 51.5227 2.62909 51.6272 2.6187 51.7319C2.60831 51.8367 2.60065 51.9417 2.59546 52.0466C2.59026 52.1516 2.5878 52.2569 2.5878 52.3622C2.5878 52.4675 2.59026 52.5725 2.59546 52.6775C2.60065 52.7827 2.60831 52.8877 2.6187 52.9922C2.62909 53.0969 2.64194 53.2014 2.65725 53.3056C2.67284 53.4097 2.69089 53.5134 2.71139 53.6165C2.7319 53.7195 2.75487 53.8223 2.78057 53.9243C2.806 54.0263 2.83417 54.1278 2.86479 54.2284C2.89542 54.3293 2.92823 54.4291 2.96378 54.5281C2.99932 54.6271 3.03706 54.7252 3.07753 54.8226C3.11772 54.9197 3.16038 55.0159 3.20549 55.1111C3.25034 55.2062 3.29792 55.3 3.34741 55.3927C3.39717 55.4857 3.44885 55.577 3.50299 55.6672C3.55714 55.7575 3.61346 55.8463 3.67198 55.9338C3.73049 56.0213 3.7912 56.1075 3.85381 56.192C3.91671 56.2765 3.98124 56.3593 4.04823 56.4405C4.11495 56.5217 4.18358 56.6016 4.2544 56.6795C4.32522 56.7574 4.39768 56.8334 4.47206 56.9078L48.0484 100.478C48.1228 100.552 48.1988 100.625 48.2767 100.695C48.3547 100.766 48.4342 100.835 48.5157 100.901C48.5969 100.968 48.6798 101.033 48.7643 101.096C48.8488 101.158 48.9346 101.219 49.0221 101.277C49.1096 101.336 49.1985 101.392 49.2885 101.446C49.3787 101.5 49.4703 101.552 49.563 101.602C49.6557 101.651 49.7498 101.699 49.8449 101.743C49.9398 101.788 50.036 101.831 50.1331 101.871C50.2302 101.912 50.3284 101.95 50.4273 101.985C50.5266 102.02 50.6264 102.053 50.727 102.084C50.8276 102.114 50.9288 102.143 51.0311 102.168C51.1331 102.194 51.2356 102.217 51.3387 102.237C51.4418 102.258 51.5454 102.276 51.6496 102.291C51.7535 102.307 51.858 102.319 51.9627 102.33C52.0671 102.34 52.1721 102.348 52.2771 102.353C52.3821 102.358 52.4874 102.361 52.5924 102.361C52.6977 102.361 52.803 102.358 52.908 102.353C53.013 102.348 53.1177 102.34 53.2224 102.33C53.3271 102.319 53.4316 102.307 53.5355 102.291C53.6397 102.276 53.7433 102.258 53.8464 102.237C53.9495 102.217 54.052 102.194 54.154 102.168C54.2563 102.143 54.3575 102.114 54.4581 102.084C54.5587 102.053 54.6585 102.02 54.7578 101.985C54.8568 101.95 54.9546 101.912 55.052 101.871C55.1491 101.831 55.2453 101.788 55.3402 101.743C55.4353 101.699 55.5294 101.651 55.6221 101.602C55.7148 101.552 55.8064 101.5 55.8964 101.446C55.9866 101.392 56.0755 101.336 56.163 101.277C56.2505 101.219 56.3363 101.158 56.4208 101.096C56.5053 101.033 56.5882 100.968 56.6694 100.901C56.7509 100.835 56.8304 100.766 56.9084 100.695C56.9863 100.625 57.0623 100.552 57.1367 100.478L100.51 57.1728C100.585 57.0987 100.657 57.0224 100.728 56.9445C100.799 56.8665 100.868 56.787 100.934 56.7057C101.001 56.6243 101.066 56.5414 101.128 56.4569C101.191 56.3724 101.252 56.2866 101.31 56.1991C101.369 56.1116 101.425 56.0227 101.479 55.9325C101.533 55.8422 101.585 55.7506 101.635 55.6579C101.685 55.5652 101.732 55.4712 101.777 55.376C101.822 55.2809 101.864 55.1849 101.905 55.0875C101.945 54.9905 101.983 54.8923 102.018 54.7933C102.054 54.6941 102.087 54.5943 102.118 54.4936C102.148 54.393 102.176 54.2916 102.202 54.1896C102.227 54.0873 102.251 53.9848 102.271 53.8817C102.292 53.7783 102.31 53.6747 102.325 53.5705C102.341 53.4666 102.353 53.3622 102.364 53.2574C102.374 53.1527 102.382 53.0477 102.387 52.9427C102.392 52.8377 102.395 52.7324 102.395 52.6272C102.395 52.5219 102.392 52.4169 102.387 52.3116C102.382 52.2066 102.374 52.1016 102.364 51.9969C102.353 51.8922 102.341 51.788 102.325 51.6838C102.31 51.5796 102.292 51.476 102.271 51.3729C102.251 51.2695 102.227 51.167 102.202 51.065C102.176 50.963 102.148 50.8616 102.118 50.7609C102.087 50.66 102.054 50.5602 102.018 50.4613C101.983 50.3623 101.945 50.2641 101.905 50.1668C101.864 50.0697 101.822 49.9734 101.777 49.8783C101.732 49.7831 101.685 49.6893 101.635 49.5964C101.585 49.5037 101.533 49.4121 101.479 49.3218C101.425 49.2316 101.369 49.143 101.31 49.0555C101.252 48.968 101.191 48.8819 101.128 48.7974C101.066 48.7129 101.001 48.63 100.934 48.5488C100.868 48.4676 100.799 48.3878 100.728 48.3099C100.657 48.2319 100.585 48.1559 100.51 48.0815" fill="#E63E21"/>
</g>
</svg>
