<svg width="105" height="105" viewBox="0 0 105 105" fill="none" xmlns="http://www.w3.org/2000/svg">
<path d="M39.6791 79.2628C39.6791 79.2628 35.8778 81.4749 42.3845 82.2239C50.2688 83.1227 54.2954 82.9931 62.9823 81.3481C62.9823 81.3481 65.2663 82.7798 68.4576 84.0212C48.9842 92.3689 24.3838 83.5375 39.6791 79.2628Z" fill="#E63E21"/>
<path d="M37.2993 68.371C37.2993 68.371 33.0356 71.5281 39.5475 72.2022C47.9674 73.0692 54.618 73.1411 66.1245 70.9233C66.1245 70.9233 67.7173 72.539 70.2203 73.4206C46.6741 80.3049 20.4492 73.965 37.2987 68.371" fill="#E63E21"/>
<path d="M57.3602 49.8943C62.1587 55.4221 56.0986 60.3937 56.0986 60.3937C56.0986 60.3937 68.2848 54.1028 62.6887 46.2245C57.4608 38.8794 53.4544 35.2298 75.1517 22.646C75.1517 22.646 41.0953 31.151 57.3602 49.8943Z" fill="#E63E21"/>
<path d="M83.1155 87.3205C83.1155 87.3205 85.9294 89.6393 80.0191 91.4338C68.7775 94.8387 33.232 95.8671 23.3584 91.5692C19.8098 90.0253 26.466 87.8821 28.5598 87.4302C30.7434 86.9577 31.9914 87.0468 31.9914 87.0468C28.044 84.2643 6.47694 92.5054 21.0367 94.8674C60.7412 101.305 93.415 91.9668 83.1152 87.3205" fill="#E63E21"/>
<path d="M41.5073 57.0855C41.5073 57.0855 23.427 61.3804 35.1047 62.9387C40.0351 63.6013 49.8654 63.4514 59.019 62.6825C66.5019 62.0517 74.0165 60.7094 74.0165 60.7094C74.0165 60.7094 71.3784 61.8414 69.4687 63.1433C51.1068 67.9738 15.6392 65.7273 25.8497 60.7871C34.4859 56.6133 41.5073 57.0855 41.5073 57.0855Z" fill="#E63E21"/>
<path d="M73.9415 75.216C92.6058 65.5174 83.9737 56.1959 77.9509 57.4518C76.4763 57.7603 75.8168 58.0252 75.8168 58.0252C75.8168 58.0252 76.3639 57.1667 77.4123 56.7953C89.3281 52.6071 98.4932 69.1525 73.5645 75.7057C73.5645 75.7057 73.8551 75.4465 73.9415 75.216Z" fill="#E63E21"/>
<mask id="mask0_35_1585" style="mask-type:luminance" maskUnits="userSpaceOnUse" x="39" y="2" width="27" height="55">
<path d="M39.6904 2.33478H65.3804V56.911H39.6904V2.33478Z" fill="white"/>
</mask>
<g mask="url(#mask0_35_1585)">
<path d="M62.6878 2.32583C62.6878 2.32583 73.0251 12.6664 52.8831 28.5674C36.7339 41.3216 49.2024 48.595 52.8774 56.9051C43.4501 48.399 36.5319 40.9098 41.1732 33.9418C47.9867 23.7111 66.8583 18.7512 62.6878 2.32556" fill="#E63E21"/>
</g>
<path d="M43.3412 101.501C61.2571 102.648 88.766 100.865 89.4168 92.3872C89.4168 92.3872 88.1639 95.599 74.6124 98.151C59.3209 101.029 40.4608 100.695 29.2767 98.8483C29.2767 98.8483 31.5662 100.743 43.3404 101.501" fill="#E63E21"/>
</svg>
