<svg width="105" height="105" viewBox="0 0 105 105" fill="none" xmlns="http://www.w3.org/2000/svg">
<mask id="mask0_35_1630" style="mask-type:luminance" maskUnits="userSpaceOnUse" x="3" y="3" width="99" height="99">
<path d="M3.21501 3.21533H101.81V101.81H3.21501V3.21533Z" fill="white"/>
</mask>
<g mask="url(#mask0_35_1630)">
<path d="M3.21501 3.21533H101.81V101.81H3.21501V3.21533Z" fill="#E63E21"/>
</g>
<path d="M67.6799 77.0158C69.5751 80.0942 71.6347 83.0438 75.9973 83.0438C79.662 83.0438 81.5845 81.2227 81.5845 78.703C81.5845 75.6875 79.5961 74.6167 75.5648 72.8612L73.3546 71.919C66.9758 69.2133 62.7337 65.8227 62.7337 58.6608C62.7337 52.0603 67.7866 47.0375 75.6824 47.0375C81.305 47.0375 85.3448 48.9847 88.2588 54.0843L81.3737 58.4855C79.8591 55.7796 78.2212 54.7143 75.6824 54.7143C73.0915 54.7143 71.4512 56.3492 71.4512 58.4855C71.4512 61.1256 73.0943 62.1939 76.8874 63.8288L79.0976 64.771C86.6155 67.9724 90.8551 71.2425 90.8551 78.5933C90.8551 86.514 84.5997 90.8548 76.2027 90.8548C67.9892 90.8548 63.3252 86.733 60.7289 81.6306L67.6799 77.0158ZM35.9486 77.2403C37.3344 79.7218 39.4407 81.6306 42.4695 81.6306C45.3672 81.6306 47.0351 80.4858 47.0351 76.0353V47.0348H56.1633V77.4378C56.1633 86.6589 50.8146 90.8548 43.0036 90.8548C35.9459 90.8548 30.8517 86.0729 28.7758 81.6306L35.9486 77.2403Z" fill="#000001"/>
</svg>
