<svg width="123" height="119" viewBox="0 0 123 119" fill="none" xmlns="http://www.w3.org/2000/svg">
<path d="M71.7964 59.4147C71.7964 59.5777 71.7922 59.741 71.7839 59.9037C71.7756 60.0667 71.7634 60.2294 71.7467 60.3918C71.7304 60.5542 71.7096 60.7163 71.6849 60.8774C71.6602 61.0389 71.6314 61.1997 71.5984 61.3596C71.5654 61.5198 71.5286 61.6788 71.4876 61.8372C71.4466 61.9955 71.4018 62.1526 71.3527 62.3088C71.3037 62.465 71.2509 62.6196 71.1942 62.7733C71.1372 62.9271 71.0766 63.0792 71.0123 63.2298C70.9476 63.3807 70.8793 63.5298 70.8073 63.6773C70.7352 63.8248 70.6593 63.9705 70.5798 64.1143C70.5004 64.2584 70.4174 64.4003 70.3306 64.5401C70.2438 64.6801 70.1538 64.818 70.06 64.9535C69.9664 65.0892 69.8694 65.2225 69.7688 65.3535C69.6685 65.4846 69.5648 65.6132 69.4578 65.7394C69.3508 65.8655 69.2406 65.9891 69.1275 66.11C69.0141 66.2309 68.8982 66.3489 68.7787 66.4642C68.6596 66.5798 68.5375 66.6923 68.4126 66.8017C68.2877 66.9114 68.1599 67.018 68.0298 67.1215C67.8995 67.225 67.7665 67.3251 67.631 67.4224C67.4955 67.5197 67.3578 67.6136 67.2175 67.7041C67.0775 67.7949 66.935 67.882 66.7902 67.966C66.6458 68.0499 66.4991 68.1302 66.3504 68.2071C66.2018 68.2842 66.0513 68.3574 65.8988 68.4271C65.7463 68.4971 65.5922 68.5631 65.4366 68.6254C65.2806 68.688 65.1233 68.7466 64.9648 68.8018C64.8059 68.8566 64.6457 68.9077 64.4846 68.9552C64.3232 69.0026 64.1608 69.0459 63.9971 69.0856C63.8334 69.1253 63.6691 69.1609 63.5038 69.1928C63.3382 69.2248 63.1723 69.2527 63.0054 69.2765C62.8388 69.3004 62.6713 69.3205 62.5035 69.3363C62.3359 69.3524 62.1678 69.3645 61.9993 69.3723C61.8308 69.3803 61.6623 69.3844 61.4938 69.3844C61.325 69.3844 61.1566 69.3803 60.9884 69.3723C60.8199 69.3645 60.6517 69.3524 60.4839 69.3363C60.3161 69.3205 60.1489 69.3004 59.982 69.2765C59.8154 69.2527 59.6492 69.2248 59.4839 69.1928C59.3186 69.1609 59.154 69.1253 58.9906 69.0856C58.8269 69.0459 58.6645 69.0026 58.5031 68.9552C58.3417 68.9077 58.1818 68.8566 58.0229 68.8018C57.8641 68.7466 57.7068 68.688 57.5511 68.6254C57.3954 68.5631 57.2414 68.4971 57.0889 68.4271C56.9364 68.3574 56.7859 68.2842 56.6373 68.2071C56.4886 68.1302 56.3419 68.0499 56.1972 67.966C56.0527 67.882 55.9102 67.7949 55.7699 67.7041C55.6299 67.6136 55.4918 67.5197 55.3567 67.4224C55.2212 67.3251 55.0882 67.225 54.9579 67.1215C54.8275 67.018 54.7 66.9114 54.5751 66.8017C54.4502 66.6923 54.3281 66.5798 54.2087 66.4642C54.0895 66.3489 53.9732 66.2309 53.8602 66.11C53.7468 65.9891 53.6369 65.8655 53.5299 65.7394C53.4229 65.6132 53.3192 65.4846 53.2186 65.3535C53.1183 65.2225 53.0213 65.0892 52.9274 64.9535C52.8339 64.818 52.7435 64.6801 52.6571 64.5401C52.5703 64.4003 52.4873 64.2584 52.4079 64.1143C52.3281 63.9705 52.2525 63.8248 52.1804 63.6773C52.1084 63.5298 52.0398 63.3807 51.9754 63.2298C51.9111 63.0792 51.8502 62.9271 51.7935 62.7733C51.7365 62.6196 51.6836 62.465 51.6349 62.3088C51.5859 62.1526 51.5408 61.9955 51.5001 61.8372C51.4591 61.6788 51.4219 61.5198 51.3893 61.3596C51.3563 61.1997 51.3274 61.0389 51.3028 60.8774C51.2781 60.7163 51.2573 60.5542 51.241 60.3918C51.2243 60.2294 51.2118 60.0667 51.2035 59.9037C51.1955 59.741 51.1913 59.5777 51.1913 59.4147C51.1913 59.2514 51.1955 59.0884 51.2035 58.9254C51.2118 58.7624 51.2243 58.6 51.241 58.4376C51.2573 58.2752 51.2781 58.1131 51.3028 57.9517C51.3274 57.7905 51.3563 57.6297 51.3893 57.4698C51.4219 57.3096 51.4591 57.1506 51.5001 56.9922C51.5408 56.8339 51.5859 56.6768 51.6349 56.5206C51.6836 56.3644 51.7365 56.2094 51.7935 56.056C51.8502 55.9023 51.9111 55.7502 51.9754 55.5993C52.0398 55.4486 52.1084 55.2996 52.1804 55.1521C52.2525 55.0046 52.3281 54.8589 52.4079 54.7148C52.4873 54.571 52.5703 54.4291 52.6571 54.289C52.7435 54.1493 52.8339 54.0114 52.9274 53.8756C53.0213 53.7402 53.1183 53.6066 53.2186 53.4755C53.3192 53.3448 53.4229 53.2162 53.5299 53.09C53.6369 52.9639 53.7468 52.8403 53.8602 52.7194C53.9732 52.5985 54.0895 52.4805 54.2087 52.3649C54.3281 52.2496 54.4502 52.1371 54.5751 52.0277C54.7 51.918 54.8275 51.8114 54.9579 51.7079C55.0882 51.6044 55.2212 51.504 55.3567 51.407C55.4918 51.3097 55.6299 51.2158 55.7699 51.125C55.9102 51.0345 56.0527 50.9471 56.1972 50.8634C56.3419 50.7794 56.4886 50.6992 56.6373 50.622C56.7859 50.5452 56.9364 50.4717 57.0889 50.402C57.2414 50.3323 57.3954 50.2663 57.5511 50.2037C57.7068 50.1414 57.8641 50.0828 58.0229 50.0276C58.1818 49.9728 58.3417 49.9217 58.5031 49.8742C58.6645 49.8268 58.8269 49.7834 58.9906 49.7438C59.154 49.7041 59.3186 49.6682 59.4839 49.6366C59.6492 49.6046 59.8154 49.5767 59.982 49.5529C60.1489 49.529 60.3161 49.5089 60.4839 49.4928C60.6517 49.477 60.8199 49.4649 60.9884 49.4568C61.1566 49.4488 61.325 49.445 61.4938 49.445C61.6623 49.445 61.8308 49.4488 61.9993 49.4568C62.1678 49.4649 62.3359 49.477 62.5035 49.4928C62.6713 49.5089 62.8388 49.529 63.0054 49.5529C63.1723 49.5767 63.3382 49.6046 63.5038 49.6366C63.6691 49.6682 63.8334 49.7041 63.9971 49.7438C64.1608 49.7834 64.3232 49.8268 64.4846 49.8742C64.6457 49.9217 64.8059 49.9728 64.9648 50.0276C65.1233 50.0828 65.2806 50.1414 65.4366 50.2037C65.5922 50.2663 65.7463 50.3323 65.8988 50.402C66.0513 50.4717 66.2018 50.5452 66.3504 50.622C66.4991 50.6989 66.6458 50.7794 66.7902 50.8634C66.935 50.9471 67.0775 51.0345 67.2175 51.125C67.3578 51.2158 67.4955 51.3097 67.631 51.407C67.7665 51.504 67.8995 51.6044 68.0298 51.7079C68.1599 51.8114 68.2877 51.918 68.4126 52.0274C68.5375 52.1371 68.6596 52.2496 68.7787 52.3649C68.8982 52.4805 69.0141 52.5985 69.1275 52.7194C69.2406 52.8403 69.3508 52.9639 69.4578 53.09C69.5648 53.2162 69.6685 53.3448 69.7688 53.4755C69.8694 53.6066 69.9664 53.7402 70.06 53.8756C70.1538 54.0114 70.2438 54.1493 70.3306 54.2893C70.4174 54.4291 70.5004 54.571 70.5798 54.7148C70.6593 54.8589 70.7352 55.0046 70.8073 55.1521C70.8793 55.2996 70.9476 55.4486 71.0123 55.5993C71.0766 55.7502 71.1372 55.9023 71.1942 56.056C71.2509 56.2094 71.3037 56.3644 71.3527 56.5206C71.4018 56.6768 71.4466 56.8339 71.4876 56.9922C71.5286 57.1506 71.5654 57.3096 71.5984 57.4698C71.6314 57.6297 71.6602 57.7905 71.6849 57.9517C71.7096 58.1131 71.7304 58.2752 71.7467 58.4376C71.7634 58.6 71.7756 58.7624 71.7839 58.9254C71.7922 59.0884 71.7964 59.2514 71.7964 59.4147Z" fill="#E63E21"/>
<mask id="mask0_35_1643" style="mask-type:luminance" maskUnits="userSpaceOnUse" x="3" y="12" width="117" height="95">
<path d="M3.80637 12.1389H119.18V106.942H3.80637V12.1389Z" fill="white"/>
</mask>
<g mask="url(#mask0_35_1643)">
<path d="M61.4941 39.1432C75.3268 39.1432 88.1771 41.0639 97.8662 44.2918C109.54 48.181 116.718 54.0758 116.718 59.4138C116.718 64.9761 109.111 71.2388 96.5747 75.2581C87.0973 78.297 74.6253 79.883 61.4941 79.883C48.0317 79.883 35.2836 78.3943 25.6989 75.225C13.5731 71.214 6.26938 64.8704 6.26938 59.4138C6.26938 54.1192 13.1225 48.2696 24.6323 44.3863C34.3573 41.1054 47.5243 39.1432 61.4932 39.1432H61.4941Z" stroke="#E63E21" stroke-width="7.47646"/>
</g>
<mask id="mask1_35_1643" style="mask-type:luminance" maskUnits="userSpaceOnUse" x="3" y="7" width="117" height="105">
<path d="M3.8063 7.23532H119.18V111.777H3.8063V7.23532Z" fill="white"/>
</mask>
<g mask="url(#mask1_35_1643)">
<path d="M43.2598 49.3349C50.1702 37.7395 58.309 27.9276 66.0388 21.4173C75.3522 13.5744 84.2136 10.5028 88.9927 13.1691C93.9723 15.9479 95.7782 25.4537 93.1135 37.971C91.101 47.434 86.2886 58.6807 79.7286 69.6885C73.003 80.974 65.3018 90.917 57.6767 97.3659C48.0286 105.527 38.7008 108.481 33.8173 105.755C29.0773 103.112 27.265 94.443 29.5385 82.8551C31.4598 73.0636 36.2811 61.0461 43.2569 49.337L43.2598 49.3349Z" stroke="#E63E21" stroke-width="7.47646"/>
<path d="M43.2766 69.7175C36.3476 58.1352 31.6284 46.4102 29.6588 36.6783C27.2882 24.9531 28.9644 15.9884 33.7383 13.3134C38.7131 10.5265 48.1252 13.7593 58.0001 22.2443C65.4666 28.6594 73.1332 38.3093 79.7115 49.3056C86.4563 60.5802 91.5118 72.0027 93.4782 81.6154C95.9667 93.7803 93.9526 103.074 89.0726 105.809C84.3375 108.462 75.6724 105.653 66.433 97.9593C58.6266 91.4586 50.2745 81.4142 43.276 69.7153L43.2766 69.7175Z" stroke="#E63E21" stroke-width="7.47646"/>
</g>
</svg>
